<svg width="512" height="512" viewBox="0 0 512 512" xmlns="http://www.w3.org/2000/svg">
  <!-- Background Circle -->
  <circle cx="256" cy="256" r="240" fill="#2563eb" stroke="#000" stroke-width="8"/>
  
  <!-- Money Bag Shadow -->
  <ellipse cx="260" cy="420" rx="80" ry="15" fill="#000" opacity="0.3"/>
  
  <!-- Money Bag Body -->
  <path d="M 256 140 Q 256 125 265 125 L 335 125 Q 350 125 350 140 L 350 180 Q 360 190 360 215 L 360 340 Q 360 375 335 375 L 185 375 Q 150 375 150 340 L 150 215 Q 150 190 160 180 L 160 140 Q 160 125 175 125 L 245 125 Q 256 125 256 140 Z" fill="#22c55e" stroke="#000" stroke-width="6"/>
  
  <!-- Money Bag Neck -->
  <rect x="230" y="125" width="55" height="35" rx="27" fill="#f59e0b" stroke="#000" stroke-width="4"/>
  <rect x="235" y="130" width="45" height="6" rx="3" fill="#d97706"/>
  <rect x="235" y="140" width="45" height="6" rx="3" fill="#d97706"/>
  <rect x="235" y="150" width="45" height="6" rx="3" fill="#d97706"/>
  
  <!-- Money Bag Highlight -->
  <path d="M 170 190 Q 185 180 210 190 Q 235 205 250 230 Q 265 255 250 280 Q 235 305 210 320 Q 185 335 170 320 Q 155 305 155 280 Q 155 255 170 230 Q 185 205 170 190" fill="#16a34a" opacity="0.8"/>
  
  <!-- Dollar Sign -->
  <circle cx="256" cy="270" r="50" fill="#fbbf24" stroke="#000" stroke-width="5"/>
  <text x="256" y="285" font-family="Arial Black" font-size="60" font-weight="900" fill="#000" text-anchor="middle">$</text>
  
  <!-- Floating Gold Coins -->
  <circle cx="130" cy="200" r="20" fill="#fbbf24" stroke="#000" stroke-width="3"/>
  <circle cx="132" cy="198" r="14" fill="#f59e0b"/>
  
  <circle cx="105" cy="280" r="15" fill="#fbbf24" stroke="#000" stroke-width="3"/>
  <circle cx="107" cy="278" r="10" fill="#f59e0b"/>
  
  <circle cx="140" cy="340" r="18" fill="#fbbf24" stroke="#000" stroke-width="3"/>
  <circle cx="142" cy="338" r="12" fill="#f59e0b"/>
  
  <circle cx="380" cy="210" r="22" fill="#fbbf24" stroke="#000" stroke-width="3"/>
  <circle cx="382" cy="208" r="16" fill="#f59e0b"/>
  
  <circle cx="405" cy="290" r="15" fill="#fbbf24" stroke="#000" stroke-width="3"/>
  <circle cx="407" cy="288" r="10" fill="#f59e0b"/>
  
  <circle cx="370" cy="350" r="20" fill="#fbbf24" stroke="#000" stroke-width="3"/>
  <circle cx="372" cy="348" r="14" fill="#f59e0b"/>
  
  <!-- Sparkle Effects -->
  <path d="M 80 170 L 85 185 L 100 180 L 85 195 L 80 210 L 75 195 L 60 180 L 75 185 Z" fill="#fbbf24" stroke="#000" stroke-width="2"/>
  <path d="M 430 170 L 435 185 L 450 180 L 435 195 L 430 210 L 425 195 L 410 180 L 425 185 Z" fill="#fbbf24" stroke="#000" stroke-width="2"/>
  <path d="M 90 390 L 95 405 L 110 400 L 95 415 L 90 430 L 85 415 L 70 400 L 85 405 Z" fill="#fbbf24" stroke="#000" stroke-width="2"/>
  <path d="M 420 390 L 425 405 L 440 400 L 425 415 L 420 430 L 415 415 L 400 400 L 415 405 Z" fill="#fbbf24" stroke="#000" stroke-width="2"/>
  
  <!-- Money Bag Rope Details -->
  <circle cx="240" cy="135" r="2" fill="#d97706"/>
  <circle cx="250" cy="135" r="2" fill="#d97706"/>
  <circle cx="260" cy="135" r="2" fill="#d97706"/>
  <circle cx="270" cy="135" r="2" fill="#d97706"/>
</svg>